<?xml version="1.0" encoding="utf-8" standalone="no"?>
<!DOCTYPE svg PUBLIC "-//W3C//DTD SVG 1.1//EN"
  "http://www.w3.org/Graphics/SVG/1.1/DTD/svg11.dtd">
<svg height="458.487422pt" version="1.1" viewBox="0 0 632.399489 458.487422" width="632.399489pt" xmlns="http://www.w3.org/2000/svg" xmlns:xlink="http://www.w3.org/1999/xlink">
 <metadata>
  <rdf:RDF xmlns:cc="http://creativecommons.org/ns#" xmlns:dc="http://purl.org/dc/elements/1.1/" xmlns:rdf="http://www.w3.org/1999/02/22-rdf-syntax-ns#">
   <cc:Work>
    <dc:type rdf:resource="http://purl.org/dc/dcmitype/StillImage"/>
    <dc:date>2022-10-21T13:58:33.248019</dc:date>
    <dc:format>image/svg+xml</dc:format>
    <dc:creator>
     <cc:Agent>
      <dc:title>Matplotlib v3.4.3, https://matplotlib.org/</dc:title>
     </cc:Agent>
    </dc:creator>
   </cc:Work>
  </rdf:RDF>
 </metadata>
 <defs>
  <style type="text/css">*{stroke-linecap:butt;stroke-linejoin:round;}</style>
 </defs>
 <g id="figure_1">
  <g id="patch_1">
   <path d="M 0 458.487422 
L 632.399489 458.487422 
L 632.399489 0 
L 0 0 
z
" style="fill:#181717;"/>
  </g>
  <g id="axes_1">
   <g id="patch_2">
    <path d="M 63.974063 400.607109 
L 621.974063 400.607109 
L 621.974063 20.087109 
L 63.974063 20.087109 
z
" style="fill:#212020;"/>
   </g>
   <g id="matplotlib.axis_1">
    <g id="xtick_1">
     <g id="line2d_1">
      <path clip-path="url(#pe12ce0b67b)" d="M 89.337699 400.607109 
L 89.337699 20.087109 
" style="fill:none;stroke:#181717;stroke-linecap:square;stroke-width:0.8;"/>
     </g>
     <g id="line2d_2">
      <defs>
       <path d="M 0 0 
L 0 3.5 
" id="m2f9438e96f" style="stroke:#ffffff;stroke-width:0.8;"/>
      </defs>
      <g>
       <use style="fill:#ffffff;stroke:#ffffff;stroke-width:0.8;" x="89.337699" xlink:href="#m2f9438e96f" y="400.607109"/>
      </g>
     </g>
     <g id="text_1">
      <!-- 1% -->
      <g style="fill:#ffffff;" transform="translate(73.473636 422.803984)scale(0.2 -0.2)">
       <defs>
        <path d="M 794 531 
L 1825 531 
L 1825 4091 
L 703 3866 
L 703 4441 
L 1819 4666 
L 2450 4666 
L 2450 531 
L 3481 531 
L 3481 0 
L 794 0 
L 794 531 
z
" id="DejaVuSans-31" transform="scale(0.015625)"/>
        <path d="M 4653 2053 
Q 4381 2053 4226 1822 
Q 4072 1591 4072 1178 
Q 4072 772 4226 539 
Q 4381 306 4653 306 
Q 4919 306 5073 539 
Q 5228 772 5228 1178 
Q 5228 1588 5073 1820 
Q 4919 2053 4653 2053 
z
M 4653 2450 
Q 5147 2450 5437 2106 
Q 5728 1763 5728 1178 
Q 5728 594 5436 251 
Q 5144 -91 4653 -91 
Q 4153 -91 3862 251 
Q 3572 594 3572 1178 
Q 3572 1766 3864 2108 
Q 4156 2450 4653 2450 
z
M 1428 4353 
Q 1159 4353 1004 4120 
Q 850 3888 850 3481 
Q 850 3069 1003 2837 
Q 1156 2606 1428 2606 
Q 1700 2606 1854 2837 
Q 2009 3069 2009 3481 
Q 2009 3884 1853 4118 
Q 1697 4353 1428 4353 
z
M 4250 4750 
L 4750 4750 
L 1831 -91 
L 1331 -91 
L 4250 4750 
z
M 1428 4750 
Q 1922 4750 2215 4408 
Q 2509 4066 2509 3481 
Q 2509 2891 2217 2550 
Q 1925 2209 1428 2209 
Q 931 2209 642 2551 
Q 353 2894 353 3481 
Q 353 4063 643 4406 
Q 934 4750 1428 4750 
z
" id="DejaVuSans-25" transform="scale(0.015625)"/>
       </defs>
       <use xlink:href="#DejaVuSans-31"/>
       <use x="63.623047" xlink:href="#DejaVuSans-25"/>
      </g>
     </g>
    </g>
    <g id="xtick_2">
     <g id="line2d_3">
      <path clip-path="url(#pe12ce0b67b)" d="M 342.974063 400.607109 
L 342.974063 20.087109 
" style="fill:none;stroke:#181717;stroke-linecap:square;stroke-width:0.8;"/>
     </g>
     <g id="line2d_4">
      <g>
       <use style="fill:#ffffff;stroke:#ffffff;stroke-width:0.8;" x="342.974063" xlink:href="#m2f9438e96f" y="400.607109"/>
      </g>
     </g>
     <g id="text_2">
      <!-- 10% -->
      <g style="fill:#ffffff;" transform="translate(320.7475 422.803984)scale(0.2 -0.2)">
       <defs>
        <path d="M 2034 4250 
Q 1547 4250 1301 3770 
Q 1056 3291 1056 2328 
Q 1056 1369 1301 889 
Q 1547 409 2034 409 
Q 2525 409 2770 889 
Q 3016 1369 3016 2328 
Q 3016 3291 2770 3770 
Q 2525 4250 2034 4250 
z
M 2034 4750 
Q 2819 4750 3233 4129 
Q 3647 3509 3647 2328 
Q 3647 1150 3233 529 
Q 2819 -91 2034 -91 
Q 1250 -91 836 529 
Q 422 1150 422 2328 
Q 422 3509 836 4129 
Q 1250 4750 2034 4750 
z
" id="DejaVuSans-30" transform="scale(0.015625)"/>
       </defs>
       <use xlink:href="#DejaVuSans-31"/>
       <use x="63.623047" xlink:href="#DejaVuSans-30"/>
       <use x="127.246094" xlink:href="#DejaVuSans-25"/>
      </g>
     </g>
    </g>
    <g id="xtick_3">
     <g id="line2d_5">
      <path clip-path="url(#pe12ce0b67b)" d="M 596.610426 400.607109 
L 596.610426 20.087109 
" style="fill:none;stroke:#181717;stroke-linecap:square;stroke-width:0.8;"/>
     </g>
     <g id="line2d_6">
      <g>
       <use style="fill:#ffffff;stroke:#ffffff;stroke-width:0.8;" x="596.610426" xlink:href="#m2f9438e96f" y="400.607109"/>
      </g>
     </g>
     <g id="text_3">
      <!-- 100% -->
      <g style="fill:#ffffff;" transform="translate(568.021364 422.803984)scale(0.2 -0.2)">
       <use xlink:href="#DejaVuSans-31"/>
       <use x="63.623047" xlink:href="#DejaVuSans-30"/>
       <use x="127.246094" xlink:href="#DejaVuSans-30"/>
       <use x="190.869141" xlink:href="#DejaVuSans-25"/>
      </g>
     </g>
    </g>
    <g id="xtick_4">
     <g id="line2d_7">
      <defs>
       <path d="M 0 0 
L 0 2 
" id="m0d700b1c95" style="stroke:#ffffff;stroke-width:0.6;"/>
      </defs>
      <g>
       <use style="fill:#ffffff;stroke:#ffffff;stroke-width:0.6;" x="64.757796" xlink:href="#m0d700b1c95" y="400.607109"/>
      </g>
     </g>
    </g>
    <g id="xtick_5">
     <g id="line2d_8">
      <g>
       <use style="fill:#ffffff;stroke:#ffffff;stroke-width:0.6;" x="77.731935" xlink:href="#m0d700b1c95" y="400.607109"/>
      </g>
     </g>
    </g>
    <g id="xtick_6">
     <g id="line2d_9">
      <g>
       <use style="fill:#ffffff;stroke:#ffffff;stroke-width:0.6;" x="165.689852" xlink:href="#m0d700b1c95" y="400.607109"/>
      </g>
     </g>
    </g>
    <g id="xtick_7">
     <g id="line2d_10">
      <g>
       <use style="fill:#ffffff;stroke:#ffffff;stroke-width:0.6;" x="210.352999" xlink:href="#m0d700b1c95" y="400.607109"/>
      </g>
     </g>
    </g>
    <g id="xtick_8">
     <g id="line2d_11">
      <g>
       <use style="fill:#ffffff;stroke:#ffffff;stroke-width:0.6;" x="242.042006" xlink:href="#m0d700b1c95" y="400.607109"/>
      </g>
     </g>
    </g>
    <g id="xtick_9">
     <g id="line2d_12">
      <g>
       <use style="fill:#ffffff;stroke:#ffffff;stroke-width:0.6;" x="266.621909" xlink:href="#m0d700b1c95" y="400.607109"/>
      </g>
     </g>
    </g>
    <g id="xtick_10">
     <g id="line2d_13">
      <g>
       <use style="fill:#ffffff;stroke:#ffffff;stroke-width:0.6;" x="286.705152" xlink:href="#m0d700b1c95" y="400.607109"/>
      </g>
     </g>
    </g>
    <g id="xtick_11">
     <g id="line2d_14">
      <g>
       <use style="fill:#ffffff;stroke:#ffffff;stroke-width:0.6;" x="303.685293" xlink:href="#m0d700b1c95" y="400.607109"/>
      </g>
     </g>
    </g>
    <g id="xtick_12">
     <g id="line2d_15">
      <g>
       <use style="fill:#ffffff;stroke:#ffffff;stroke-width:0.6;" x="318.394159" xlink:href="#m0d700b1c95" y="400.607109"/>
      </g>
     </g>
    </g>
    <g id="xtick_13">
     <g id="line2d_16">
      <g>
       <use style="fill:#ffffff;stroke:#ffffff;stroke-width:0.6;" x="331.368299" xlink:href="#m0d700b1c95" y="400.607109"/>
      </g>
     </g>
    </g>
    <g id="xtick_14">
     <g id="line2d_17">
      <g>
       <use style="fill:#ffffff;stroke:#ffffff;stroke-width:0.6;" x="419.326216" xlink:href="#m0d700b1c95" y="400.607109"/>
      </g>
     </g>
    </g>
    <g id="xtick_15">
     <g id="line2d_18">
      <g>
       <use style="fill:#ffffff;stroke:#ffffff;stroke-width:0.6;" x="463.989363" xlink:href="#m0d700b1c95" y="400.607109"/>
      </g>
     </g>
    </g>
    <g id="xtick_16">
     <g id="line2d_19">
      <g>
       <use style="fill:#ffffff;stroke:#ffffff;stroke-width:0.6;" x="495.678369" xlink:href="#m0d700b1c95" y="400.607109"/>
      </g>
     </g>
    </g>
    <g id="xtick_17">
     <g id="line2d_20">
      <g>
       <use style="fill:#ffffff;stroke:#ffffff;stroke-width:0.6;" x="520.258273" xlink:href="#m0d700b1c95" y="400.607109"/>
      </g>
     </g>
    </g>
    <g id="xtick_18">
     <g id="line2d_21">
      <g>
       <use style="fill:#ffffff;stroke:#ffffff;stroke-width:0.6;" x="540.341516" xlink:href="#m0d700b1c95" y="400.607109"/>
      </g>
     </g>
    </g>
    <g id="xtick_19">
     <g id="line2d_22">
      <g>
       <use style="fill:#ffffff;stroke:#ffffff;stroke-width:0.6;" x="557.321656" xlink:href="#m0d700b1c95" y="400.607109"/>
      </g>
     </g>
    </g>
    <g id="xtick_20">
     <g id="line2d_23">
      <g>
       <use style="fill:#ffffff;stroke:#ffffff;stroke-width:0.6;" x="572.030523" xlink:href="#m0d700b1c95" y="400.607109"/>
      </g>
     </g>
    </g>
    <g id="xtick_21">
     <g id="line2d_24">
      <g>
       <use style="fill:#ffffff;stroke:#ffffff;stroke-width:0.6;" x="585.004663" xlink:href="#m0d700b1c95" y="400.607109"/>
      </g>
     </g>
    </g>
    <g id="text_4">
     <!-- Percentage of annotations used (logarithmic scale) -->
     <g style="fill:#ffffff;" transform="translate(74.945156 446.920078)scale(0.21 -0.21)">
      <defs>
       <path d="M 1259 4147 
L 1259 2394 
L 2053 2394 
Q 2494 2394 2734 2622 
Q 2975 2850 2975 3272 
Q 2975 3691 2734 3919 
Q 2494 4147 2053 4147 
L 1259 4147 
z
M 628 4666 
L 2053 4666 
Q 2838 4666 3239 4311 
Q 3641 3956 3641 3272 
Q 3641 2581 3239 2228 
Q 2838 1875 2053 1875 
L 1259 1875 
L 1259 0 
L 628 0 
L 628 4666 
z
" id="DejaVuSans-50" transform="scale(0.015625)"/>
       <path d="M 3597 1894 
L 3597 1613 
L 953 1613 
Q 991 1019 1311 708 
Q 1631 397 2203 397 
Q 2534 397 2845 478 
Q 3156 559 3463 722 
L 3463 178 
Q 3153 47 2828 -22 
Q 2503 -91 2169 -91 
Q 1331 -91 842 396 
Q 353 884 353 1716 
Q 353 2575 817 3079 
Q 1281 3584 2069 3584 
Q 2775 3584 3186 3129 
Q 3597 2675 3597 1894 
z
M 3022 2063 
Q 3016 2534 2758 2815 
Q 2500 3097 2075 3097 
Q 1594 3097 1305 2825 
Q 1016 2553 972 2059 
L 3022 2063 
z
" id="DejaVuSans-65" transform="scale(0.015625)"/>
       <path d="M 2631 2963 
Q 2534 3019 2420 3045 
Q 2306 3072 2169 3072 
Q 1681 3072 1420 2755 
Q 1159 2438 1159 1844 
L 1159 0 
L 581 0 
L 581 3500 
L 1159 3500 
L 1159 2956 
Q 1341 3275 1631 3429 
Q 1922 3584 2338 3584 
Q 2397 3584 2469 3576 
Q 2541 3569 2628 3553 
L 2631 2963 
z
" id="DejaVuSans-72" transform="scale(0.015625)"/>
       <path d="M 3122 3366 
L 3122 2828 
Q 2878 2963 2633 3030 
Q 2388 3097 2138 3097 
Q 1578 3097 1268 2742 
Q 959 2388 959 1747 
Q 959 1106 1268 751 
Q 1578 397 2138 397 
Q 2388 397 2633 464 
Q 2878 531 3122 666 
L 3122 134 
Q 2881 22 2623 -34 
Q 2366 -91 2075 -91 
Q 1284 -91 818 406 
Q 353 903 353 1747 
Q 353 2603 823 3093 
Q 1294 3584 2113 3584 
Q 2378 3584 2631 3529 
Q 2884 3475 3122 3366 
z
" id="DejaVuSans-63" transform="scale(0.015625)"/>
       <path d="M 3513 2113 
L 3513 0 
L 2938 0 
L 2938 2094 
Q 2938 2591 2744 2837 
Q 2550 3084 2163 3084 
Q 1697 3084 1428 2787 
Q 1159 2491 1159 1978 
L 1159 0 
L 581 0 
L 581 3500 
L 1159 3500 
L 1159 2956 
Q 1366 3272 1645 3428 
Q 1925 3584 2291 3584 
Q 2894 3584 3203 3211 
Q 3513 2838 3513 2113 
z
" id="DejaVuSans-6e" transform="scale(0.015625)"/>
       <path d="M 1172 4494 
L 1172 3500 
L 2356 3500 
L 2356 3053 
L 1172 3053 
L 1172 1153 
Q 1172 725 1289 603 
Q 1406 481 1766 481 
L 2356 481 
L 2356 0 
L 1766 0 
Q 1100 0 847 248 
Q 594 497 594 1153 
L 594 3053 
L 172 3053 
L 172 3500 
L 594 3500 
L 594 4494 
L 1172 4494 
z
" id="DejaVuSans-74" transform="scale(0.015625)"/>
       <path d="M 2194 1759 
Q 1497 1759 1228 1600 
Q 959 1441 959 1056 
Q 959 750 1161 570 
Q 1363 391 1709 391 
Q 2188 391 2477 730 
Q 2766 1069 2766 1631 
L 2766 1759 
L 2194 1759 
z
M 3341 1997 
L 3341 0 
L 2766 0 
L 2766 531 
Q 2569 213 2275 61 
Q 1981 -91 1556 -91 
Q 1019 -91 701 211 
Q 384 513 384 1019 
Q 384 1609 779 1909 
Q 1175 2209 1959 2209 
L 2766 2209 
L 2766 2266 
Q 2766 2663 2505 2880 
Q 2244 3097 1772 3097 
Q 1472 3097 1187 3025 
Q 903 2953 641 2809 
L 641 3341 
Q 956 3463 1253 3523 
Q 1550 3584 1831 3584 
Q 2591 3584 2966 3190 
Q 3341 2797 3341 1997 
z
" id="DejaVuSans-61" transform="scale(0.015625)"/>
       <path d="M 2906 1791 
Q 2906 2416 2648 2759 
Q 2391 3103 1925 3103 
Q 1463 3103 1205 2759 
Q 947 2416 947 1791 
Q 947 1169 1205 825 
Q 1463 481 1925 481 
Q 2391 481 2648 825 
Q 2906 1169 2906 1791 
z
M 3481 434 
Q 3481 -459 3084 -895 
Q 2688 -1331 1869 -1331 
Q 1566 -1331 1297 -1286 
Q 1028 -1241 775 -1147 
L 775 -588 
Q 1028 -725 1275 -790 
Q 1522 -856 1778 -856 
Q 2344 -856 2625 -561 
Q 2906 -266 2906 331 
L 2906 616 
Q 2728 306 2450 153 
Q 2172 0 1784 0 
Q 1141 0 747 490 
Q 353 981 353 1791 
Q 353 2603 747 3093 
Q 1141 3584 1784 3584 
Q 2172 3584 2450 3431 
Q 2728 3278 2906 2969 
L 2906 3500 
L 3481 3500 
L 3481 434 
z
" id="DejaVuSans-67" transform="scale(0.015625)"/>
       <path id="DejaVuSans-20" transform="scale(0.015625)"/>
       <path d="M 1959 3097 
Q 1497 3097 1228 2736 
Q 959 2375 959 1747 
Q 959 1119 1226 758 
Q 1494 397 1959 397 
Q 2419 397 2687 759 
Q 2956 1122 2956 1747 
Q 2956 2369 2687 2733 
Q 2419 3097 1959 3097 
z
M 1959 3584 
Q 2709 3584 3137 3096 
Q 3566 2609 3566 1747 
Q 3566 888 3137 398 
Q 2709 -91 1959 -91 
Q 1206 -91 779 398 
Q 353 888 353 1747 
Q 353 2609 779 3096 
Q 1206 3584 1959 3584 
z
" id="DejaVuSans-6f" transform="scale(0.015625)"/>
       <path d="M 2375 4863 
L 2375 4384 
L 1825 4384 
Q 1516 4384 1395 4259 
Q 1275 4134 1275 3809 
L 1275 3500 
L 2222 3500 
L 2222 3053 
L 1275 3053 
L 1275 0 
L 697 0 
L 697 3053 
L 147 3053 
L 147 3500 
L 697 3500 
L 697 3744 
Q 697 4328 969 4595 
Q 1241 4863 1831 4863 
L 2375 4863 
z
" id="DejaVuSans-66" transform="scale(0.015625)"/>
       <path d="M 603 3500 
L 1178 3500 
L 1178 0 
L 603 0 
L 603 3500 
z
M 603 4863 
L 1178 4863 
L 1178 4134 
L 603 4134 
L 603 4863 
z
" id="DejaVuSans-69" transform="scale(0.015625)"/>
       <path d="M 2834 3397 
L 2834 2853 
Q 2591 2978 2328 3040 
Q 2066 3103 1784 3103 
Q 1356 3103 1142 2972 
Q 928 2841 928 2578 
Q 928 2378 1081 2264 
Q 1234 2150 1697 2047 
L 1894 2003 
Q 2506 1872 2764 1633 
Q 3022 1394 3022 966 
Q 3022 478 2636 193 
Q 2250 -91 1575 -91 
Q 1294 -91 989 -36 
Q 684 19 347 128 
L 347 722 
Q 666 556 975 473 
Q 1284 391 1588 391 
Q 1994 391 2212 530 
Q 2431 669 2431 922 
Q 2431 1156 2273 1281 
Q 2116 1406 1581 1522 
L 1381 1569 
Q 847 1681 609 1914 
Q 372 2147 372 2553 
Q 372 3047 722 3315 
Q 1072 3584 1716 3584 
Q 2034 3584 2315 3537 
Q 2597 3491 2834 3397 
z
" id="DejaVuSans-73" transform="scale(0.015625)"/>
       <path d="M 544 1381 
L 544 3500 
L 1119 3500 
L 1119 1403 
Q 1119 906 1312 657 
Q 1506 409 1894 409 
Q 2359 409 2629 706 
Q 2900 1003 2900 1516 
L 2900 3500 
L 3475 3500 
L 3475 0 
L 2900 0 
L 2900 538 
Q 2691 219 2414 64 
Q 2138 -91 1772 -91 
Q 1169 -91 856 284 
Q 544 659 544 1381 
z
M 1991 3584 
L 1991 3584 
z
" id="DejaVuSans-75" transform="scale(0.015625)"/>
       <path d="M 2906 2969 
L 2906 4863 
L 3481 4863 
L 3481 0 
L 2906 0 
L 2906 525 
Q 2725 213 2448 61 
Q 2172 -91 1784 -91 
Q 1150 -91 751 415 
Q 353 922 353 1747 
Q 353 2572 751 3078 
Q 1150 3584 1784 3584 
Q 2172 3584 2448 3432 
Q 2725 3281 2906 2969 
z
M 947 1747 
Q 947 1113 1208 752 
Q 1469 391 1925 391 
Q 2381 391 2643 752 
Q 2906 1113 2906 1747 
Q 2906 2381 2643 2742 
Q 2381 3103 1925 3103 
Q 1469 3103 1208 2742 
Q 947 2381 947 1747 
z
" id="DejaVuSans-64" transform="scale(0.015625)"/>
       <path d="M 1984 4856 
Q 1566 4138 1362 3434 
Q 1159 2731 1159 2009 
Q 1159 1288 1364 580 
Q 1569 -128 1984 -844 
L 1484 -844 
Q 1016 -109 783 600 
Q 550 1309 550 2009 
Q 550 2706 781 3412 
Q 1013 4119 1484 4856 
L 1984 4856 
z
" id="DejaVuSans-28" transform="scale(0.015625)"/>
       <path d="M 603 4863 
L 1178 4863 
L 1178 0 
L 603 0 
L 603 4863 
z
" id="DejaVuSans-6c" transform="scale(0.015625)"/>
       <path d="M 3513 2113 
L 3513 0 
L 2938 0 
L 2938 2094 
Q 2938 2591 2744 2837 
Q 2550 3084 2163 3084 
Q 1697 3084 1428 2787 
Q 1159 2491 1159 1978 
L 1159 0 
L 581 0 
L 581 4863 
L 1159 4863 
L 1159 2956 
Q 1366 3272 1645 3428 
Q 1925 3584 2291 3584 
Q 2894 3584 3203 3211 
Q 3513 2838 3513 2113 
z
" id="DejaVuSans-68" transform="scale(0.015625)"/>
       <path d="M 3328 2828 
Q 3544 3216 3844 3400 
Q 4144 3584 4550 3584 
Q 5097 3584 5394 3201 
Q 5691 2819 5691 2113 
L 5691 0 
L 5113 0 
L 5113 2094 
Q 5113 2597 4934 2840 
Q 4756 3084 4391 3084 
Q 3944 3084 3684 2787 
Q 3425 2491 3425 1978 
L 3425 0 
L 2847 0 
L 2847 2094 
Q 2847 2600 2669 2842 
Q 2491 3084 2119 3084 
Q 1678 3084 1418 2786 
Q 1159 2488 1159 1978 
L 1159 0 
L 581 0 
L 581 3500 
L 1159 3500 
L 1159 2956 
Q 1356 3278 1631 3431 
Q 1906 3584 2284 3584 
Q 2666 3584 2933 3390 
Q 3200 3197 3328 2828 
z
" id="DejaVuSans-6d" transform="scale(0.015625)"/>
       <path d="M 513 4856 
L 1013 4856 
Q 1481 4119 1714 3412 
Q 1947 2706 1947 2009 
Q 1947 1309 1714 600 
Q 1481 -109 1013 -844 
L 513 -844 
Q 928 -128 1133 580 
Q 1338 1288 1338 2009 
Q 1338 2731 1133 3434 
Q 928 4138 513 4856 
z
" id="DejaVuSans-29" transform="scale(0.015625)"/>
      </defs>
      <use xlink:href="#DejaVuSans-50"/>
      <use x="56.677734" xlink:href="#DejaVuSans-65"/>
      <use x="118.201172" xlink:href="#DejaVuSans-72"/>
      <use x="157.064453" xlink:href="#DejaVuSans-63"/>
      <use x="212.044922" xlink:href="#DejaVuSans-65"/>
      <use x="273.568359" xlink:href="#DejaVuSans-6e"/>
      <use x="336.947266" xlink:href="#DejaVuSans-74"/>
      <use x="376.15625" xlink:href="#DejaVuSans-61"/>
      <use x="437.435547" xlink:href="#DejaVuSans-67"/>
      <use x="500.912109" xlink:href="#DejaVuSans-65"/>
      <use x="562.435547" xlink:href="#DejaVuSans-20"/>
      <use x="594.222656" xlink:href="#DejaVuSans-6f"/>
      <use x="655.404297" xlink:href="#DejaVuSans-66"/>
      <use x="690.609375" xlink:href="#DejaVuSans-20"/>
      <use x="722.396484" xlink:href="#DejaVuSans-61"/>
      <use x="783.675781" xlink:href="#DejaVuSans-6e"/>
      <use x="847.054688" xlink:href="#DejaVuSans-6e"/>
      <use x="910.433594" xlink:href="#DejaVuSans-6f"/>
      <use x="971.615234" xlink:href="#DejaVuSans-74"/>
      <use x="1010.824219" xlink:href="#DejaVuSans-61"/>
      <use x="1072.103516" xlink:href="#DejaVuSans-74"/>
      <use x="1111.3125" xlink:href="#DejaVuSans-69"/>
      <use x="1139.095703" xlink:href="#DejaVuSans-6f"/>
      <use x="1200.277344" xlink:href="#DejaVuSans-6e"/>
      <use x="1263.65625" xlink:href="#DejaVuSans-73"/>
      <use x="1315.755859" xlink:href="#DejaVuSans-20"/>
      <use x="1347.542969" xlink:href="#DejaVuSans-75"/>
      <use x="1410.921875" xlink:href="#DejaVuSans-73"/>
      <use x="1463.021484" xlink:href="#DejaVuSans-65"/>
      <use x="1524.544922" xlink:href="#DejaVuSans-64"/>
      <use x="1588.021484" xlink:href="#DejaVuSans-20"/>
      <use x="1619.808594" xlink:href="#DejaVuSans-28"/>
      <use x="1658.822266" xlink:href="#DejaVuSans-6c"/>
      <use x="1686.605469" xlink:href="#DejaVuSans-6f"/>
      <use x="1747.787109" xlink:href="#DejaVuSans-67"/>
      <use x="1811.263672" xlink:href="#DejaVuSans-61"/>
      <use x="1872.542969" xlink:href="#DejaVuSans-72"/>
      <use x="1913.65625" xlink:href="#DejaVuSans-69"/>
      <use x="1941.439453" xlink:href="#DejaVuSans-74"/>
      <use x="1980.648438" xlink:href="#DejaVuSans-68"/>
      <use x="2044.027344" xlink:href="#DejaVuSans-6d"/>
      <use x="2141.439453" xlink:href="#DejaVuSans-69"/>
      <use x="2169.222656" xlink:href="#DejaVuSans-63"/>
      <use x="2224.203125" xlink:href="#DejaVuSans-20"/>
      <use x="2255.990234" xlink:href="#DejaVuSans-73"/>
      <use x="2308.089844" xlink:href="#DejaVuSans-63"/>
      <use x="2363.070312" xlink:href="#DejaVuSans-61"/>
      <use x="2424.349609" xlink:href="#DejaVuSans-6c"/>
      <use x="2452.132812" xlink:href="#DejaVuSans-65"/>
      <use x="2513.65625" xlink:href="#DejaVuSans-29"/>
     </g>
    </g>
   </g>
   <g id="matplotlib.axis_2">
    <g id="ytick_1">
     <g id="line2d_25">
      <path clip-path="url(#pe12ce0b67b)" d="M 63.974063 400.607109 
L 621.974063 400.607109 
" style="fill:none;stroke:#181717;stroke-linecap:square;stroke-width:0.8;"/>
     </g>
     <g id="line2d_26">
      <defs>
       <path d="M 0 0 
L -3.5 0 
" id="m5df3187fa1" style="stroke:#ffffff;stroke-width:0.8;"/>
      </defs>
      <g>
       <use style="fill:#ffffff;stroke:#ffffff;stroke-width:0.8;" x="63.974063" xlink:href="#m5df3187fa1" y="400.607109"/>
      </g>
     </g>
     <g id="text_5">
      <!-- 65 -->
      <g style="fill:#ffffff;" transform="translate(31.524063 408.205547)scale(0.2 -0.2)">
       <defs>
        <path d="M 2113 2584 
Q 1688 2584 1439 2293 
Q 1191 2003 1191 1497 
Q 1191 994 1439 701 
Q 1688 409 2113 409 
Q 2538 409 2786 701 
Q 3034 994 3034 1497 
Q 3034 2003 2786 2293 
Q 2538 2584 2113 2584 
z
M 3366 4563 
L 3366 3988 
Q 3128 4100 2886 4159 
Q 2644 4219 2406 4219 
Q 1781 4219 1451 3797 
Q 1122 3375 1075 2522 
Q 1259 2794 1537 2939 
Q 1816 3084 2150 3084 
Q 2853 3084 3261 2657 
Q 3669 2231 3669 1497 
Q 3669 778 3244 343 
Q 2819 -91 2113 -91 
Q 1303 -91 875 529 
Q 447 1150 447 2328 
Q 447 3434 972 4092 
Q 1497 4750 2381 4750 
Q 2619 4750 2861 4703 
Q 3103 4656 3366 4563 
z
" id="DejaVuSans-36" transform="scale(0.015625)"/>
        <path d="M 691 4666 
L 3169 4666 
L 3169 4134 
L 1269 4134 
L 1269 2991 
Q 1406 3038 1543 3061 
Q 1681 3084 1819 3084 
Q 2600 3084 3056 2656 
Q 3513 2228 3513 1497 
Q 3513 744 3044 326 
Q 2575 -91 1722 -91 
Q 1428 -91 1123 -41 
Q 819 9 494 109 
L 494 744 
Q 775 591 1075 516 
Q 1375 441 1709 441 
Q 2250 441 2565 725 
Q 2881 1009 2881 1497 
Q 2881 1984 2565 2268 
Q 2250 2553 1709 2553 
Q 1456 2553 1204 2497 
Q 953 2441 691 2322 
L 691 4666 
z
" id="DejaVuSans-35" transform="scale(0.015625)"/>
       </defs>
       <use xlink:href="#DejaVuSans-36"/>
       <use x="63.623047" xlink:href="#DejaVuSans-35"/>
      </g>
     </g>
    </g>
    <g id="ytick_2">
     <g id="line2d_27">
      <path clip-path="url(#pe12ce0b67b)" d="M 63.974063 337.187109 
L 621.974063 337.187109 
" style="fill:none;stroke:#181717;stroke-linecap:square;stroke-width:0.8;"/>
     </g>
     <g id="line2d_28">
      <g>
       <use style="fill:#ffffff;stroke:#ffffff;stroke-width:0.8;" x="63.974063" xlink:href="#m5df3187fa1" y="337.187109"/>
      </g>
     </g>
     <g id="text_6">
      <!-- 70 -->
      <g style="fill:#ffffff;" transform="translate(31.524063 344.785547)scale(0.2 -0.2)">
       <defs>
        <path d="M 525 4666 
L 3525 4666 
L 3525 4397 
L 1831 0 
L 1172 0 
L 2766 4134 
L 525 4134 
L 525 4666 
z
" id="DejaVuSans-37" transform="scale(0.015625)"/>
       </defs>
       <use xlink:href="#DejaVuSans-37"/>
       <use x="63.623047" xlink:href="#DejaVuSans-30"/>
      </g>
     </g>
    </g>
    <g id="ytick_3">
     <g id="line2d_29">
      <path clip-path="url(#pe12ce0b67b)" d="M 63.974063 273.767109 
L 621.974063 273.767109 
" style="fill:none;stroke:#181717;stroke-linecap:square;stroke-width:0.8;"/>
     </g>
     <g id="line2d_30">
      <g>
       <use style="fill:#ffffff;stroke:#ffffff;stroke-width:0.8;" x="63.974063" xlink:href="#m5df3187fa1" y="273.767109"/>
      </g>
     </g>
     <g id="text_7">
      <!-- 75 -->
      <g style="fill:#ffffff;" transform="translate(31.524063 281.365547)scale(0.2 -0.2)">
       <use xlink:href="#DejaVuSans-37"/>
       <use x="63.623047" xlink:href="#DejaVuSans-35"/>
      </g>
     </g>
    </g>
    <g id="ytick_4">
     <g id="line2d_31">
      <path clip-path="url(#pe12ce0b67b)" d="M 63.974063 210.347109 
L 621.974063 210.347109 
" style="fill:none;stroke:#181717;stroke-linecap:square;stroke-width:0.8;"/>
     </g>
     <g id="line2d_32">
      <g>
       <use style="fill:#ffffff;stroke:#ffffff;stroke-width:0.8;" x="63.974063" xlink:href="#m5df3187fa1" y="210.347109"/>
      </g>
     </g>
     <g id="text_8">
      <!-- 80 -->
      <g style="fill:#ffffff;" transform="translate(31.524063 217.945547)scale(0.2 -0.2)">
       <defs>
        <path d="M 2034 2216 
Q 1584 2216 1326 1975 
Q 1069 1734 1069 1313 
Q 1069 891 1326 650 
Q 1584 409 2034 409 
Q 2484 409 2743 651 
Q 3003 894 3003 1313 
Q 3003 1734 2745 1975 
Q 2488 2216 2034 2216 
z
M 1403 2484 
Q 997 2584 770 2862 
Q 544 3141 544 3541 
Q 544 4100 942 4425 
Q 1341 4750 2034 4750 
Q 2731 4750 3128 4425 
Q 3525 4100 3525 3541 
Q 3525 3141 3298 2862 
Q 3072 2584 2669 2484 
Q 3125 2378 3379 2068 
Q 3634 1759 3634 1313 
Q 3634 634 3220 271 
Q 2806 -91 2034 -91 
Q 1263 -91 848 271 
Q 434 634 434 1313 
Q 434 1759 690 2068 
Q 947 2378 1403 2484 
z
M 1172 3481 
Q 1172 3119 1398 2916 
Q 1625 2713 2034 2713 
Q 2441 2713 2670 2916 
Q 2900 3119 2900 3481 
Q 2900 3844 2670 4047 
Q 2441 4250 2034 4250 
Q 1625 4250 1398 4047 
Q 1172 3844 1172 3481 
z
" id="DejaVuSans-38" transform="scale(0.015625)"/>
       </defs>
       <use xlink:href="#DejaVuSans-38"/>
       <use x="63.623047" xlink:href="#DejaVuSans-30"/>
      </g>
     </g>
    </g>
    <g id="ytick_5">
     <g id="line2d_33">
      <path clip-path="url(#pe12ce0b67b)" d="M 63.974063 146.927109 
L 621.974063 146.927109 
" style="fill:none;stroke:#181717;stroke-linecap:square;stroke-width:0.8;"/>
     </g>
     <g id="line2d_34">
      <g>
       <use style="fill:#ffffff;stroke:#ffffff;stroke-width:0.8;" x="63.974063" xlink:href="#m5df3187fa1" y="146.927109"/>
      </g>
     </g>
     <g id="text_9">
      <!-- 85 -->
      <g style="fill:#ffffff;" transform="translate(31.524063 154.525547)scale(0.2 -0.2)">
       <use xlink:href="#DejaVuSans-38"/>
       <use x="63.623047" xlink:href="#DejaVuSans-35"/>
      </g>
     </g>
    </g>
    <g id="ytick_6">
     <g id="line2d_35">
      <path clip-path="url(#pe12ce0b67b)" d="M 63.974063 83.507109 
L 621.974063 83.507109 
" style="fill:none;stroke:#181717;stroke-linecap:square;stroke-width:0.8;"/>
     </g>
     <g id="line2d_36">
      <g>
       <use style="fill:#ffffff;stroke:#ffffff;stroke-width:0.8;" x="63.974063" xlink:href="#m5df3187fa1" y="83.507109"/>
      </g>
     </g>
     <g id="text_10">
      <!-- 90 -->
      <g style="fill:#ffffff;" transform="translate(31.524063 91.105547)scale(0.2 -0.2)">
       <defs>
        <path d="M 703 97 
L 703 672 
Q 941 559 1184 500 
Q 1428 441 1663 441 
Q 2288 441 2617 861 
Q 2947 1281 2994 2138 
Q 2813 1869 2534 1725 
Q 2256 1581 1919 1581 
Q 1219 1581 811 2004 
Q 403 2428 403 3163 
Q 403 3881 828 4315 
Q 1253 4750 1959 4750 
Q 2769 4750 3195 4129 
Q 3622 3509 3622 2328 
Q 3622 1225 3098 567 
Q 2575 -91 1691 -91 
Q 1453 -91 1209 -44 
Q 966 3 703 97 
z
M 1959 2075 
Q 2384 2075 2632 2365 
Q 2881 2656 2881 3163 
Q 2881 3666 2632 3958 
Q 2384 4250 1959 4250 
Q 1534 4250 1286 3958 
Q 1038 3666 1038 3163 
Q 1038 2656 1286 2365 
Q 1534 2075 1959 2075 
z
" id="DejaVuSans-39" transform="scale(0.015625)"/>
       </defs>
       <use xlink:href="#DejaVuSans-39"/>
       <use x="63.623047" xlink:href="#DejaVuSans-30"/>
      </g>
     </g>
    </g>
    <g id="ytick_7">
     <g id="line2d_37">
      <path clip-path="url(#pe12ce0b67b)" d="M 63.974063 20.087109 
L 621.974063 20.087109 
" style="fill:none;stroke:#181717;stroke-linecap:square;stroke-width:0.8;"/>
     </g>
     <g id="line2d_38">
      <g>
       <use style="fill:#ffffff;stroke:#ffffff;stroke-width:0.8;" x="63.974063" xlink:href="#m5df3187fa1" y="20.087109"/>
      </g>
     </g>
     <g id="text_11">
      <!-- 95 -->
      <g style="fill:#ffffff;" transform="translate(31.524063 27.685547)scale(0.2 -0.2)">
       <use xlink:href="#DejaVuSans-39"/>
       <use x="63.623047" xlink:href="#DejaVuSans-35"/>
      </g>
     </g>
    </g>
    <g id="text_12">
     <!-- Accuracy of malignancy prediction [%] -->
     <g style="fill:#ffffff;" transform="translate(23.156719 413.494219)rotate(-90)scale(0.21 -0.21)">
      <defs>
       <path d="M 2188 4044 
L 1331 1722 
L 3047 1722 
L 2188 4044 
z
M 1831 4666 
L 2547 4666 
L 4325 0 
L 3669 0 
L 3244 1197 
L 1141 1197 
L 716 0 
L 50 0 
L 1831 4666 
z
" id="DejaVuSans-41" transform="scale(0.015625)"/>
       <path d="M 2059 -325 
Q 1816 -950 1584 -1140 
Q 1353 -1331 966 -1331 
L 506 -1331 
L 506 -850 
L 844 -850 
Q 1081 -850 1212 -737 
Q 1344 -625 1503 -206 
L 1606 56 
L 191 3500 
L 800 3500 
L 1894 763 
L 2988 3500 
L 3597 3500 
L 2059 -325 
z
" id="DejaVuSans-79" transform="scale(0.015625)"/>
       <path d="M 1159 525 
L 1159 -1331 
L 581 -1331 
L 581 3500 
L 1159 3500 
L 1159 2969 
Q 1341 3281 1617 3432 
Q 1894 3584 2278 3584 
Q 2916 3584 3314 3078 
Q 3713 2572 3713 1747 
Q 3713 922 3314 415 
Q 2916 -91 2278 -91 
Q 1894 -91 1617 61 
Q 1341 213 1159 525 
z
M 3116 1747 
Q 3116 2381 2855 2742 
Q 2594 3103 2138 3103 
Q 1681 3103 1420 2742 
Q 1159 2381 1159 1747 
Q 1159 1113 1420 752 
Q 1681 391 2138 391 
Q 2594 391 2855 752 
Q 3116 1113 3116 1747 
z
" id="DejaVuSans-70" transform="scale(0.015625)"/>
       <path d="M 550 4863 
L 1875 4863 
L 1875 4416 
L 1125 4416 
L 1125 -397 
L 1875 -397 
L 1875 -844 
L 550 -844 
L 550 4863 
z
" id="DejaVuSans-5b" transform="scale(0.015625)"/>
       <path d="M 1947 4863 
L 1947 -844 
L 622 -844 
L 622 -397 
L 1369 -397 
L 1369 4416 
L 622 4416 
L 622 4863 
L 1947 4863 
z
" id="DejaVuSans-5d" transform="scale(0.015625)"/>
      </defs>
      <use xlink:href="#DejaVuSans-41"/>
      <use x="66.658203" xlink:href="#DejaVuSans-63"/>
      <use x="121.638672" xlink:href="#DejaVuSans-63"/>
      <use x="176.619141" xlink:href="#DejaVuSans-75"/>
      <use x="239.998047" xlink:href="#DejaVuSans-72"/>
      <use x="281.111328" xlink:href="#DejaVuSans-61"/>
      <use x="342.390625" xlink:href="#DejaVuSans-63"/>
      <use x="397.371094" xlink:href="#DejaVuSans-79"/>
      <use x="456.550781" xlink:href="#DejaVuSans-20"/>
      <use x="488.337891" xlink:href="#DejaVuSans-6f"/>
      <use x="549.519531" xlink:href="#DejaVuSans-66"/>
      <use x="584.724609" xlink:href="#DejaVuSans-20"/>
      <use x="616.511719" xlink:href="#DejaVuSans-6d"/>
      <use x="713.923828" xlink:href="#DejaVuSans-61"/>
      <use x="775.203125" xlink:href="#DejaVuSans-6c"/>
      <use x="802.986328" xlink:href="#DejaVuSans-69"/>
      <use x="830.769531" xlink:href="#DejaVuSans-67"/>
      <use x="894.246094" xlink:href="#DejaVuSans-6e"/>
      <use x="957.625" xlink:href="#DejaVuSans-61"/>
      <use x="1018.904297" xlink:href="#DejaVuSans-6e"/>
      <use x="1082.283203" xlink:href="#DejaVuSans-63"/>
      <use x="1137.263672" xlink:href="#DejaVuSans-79"/>
      <use x="1196.443359" xlink:href="#DejaVuSans-20"/>
      <use x="1228.230469" xlink:href="#DejaVuSans-70"/>
      <use x="1291.707031" xlink:href="#DejaVuSans-72"/>
      <use x="1330.570312" xlink:href="#DejaVuSans-65"/>
      <use x="1392.09375" xlink:href="#DejaVuSans-64"/>
      <use x="1455.570312" xlink:href="#DejaVuSans-69"/>
      <use x="1483.353516" xlink:href="#DejaVuSans-63"/>
      <use x="1538.333984" xlink:href="#DejaVuSans-74"/>
      <use x="1577.542969" xlink:href="#DejaVuSans-69"/>
      <use x="1605.326172" xlink:href="#DejaVuSans-6f"/>
      <use x="1666.507812" xlink:href="#DejaVuSans-6e"/>
      <use x="1729.886719" xlink:href="#DejaVuSans-20"/>
      <use x="1761.673828" xlink:href="#DejaVuSans-5b"/>
      <use x="1800.6875" xlink:href="#DejaVuSans-25"/>
      <use x="1895.707031" xlink:href="#DejaVuSans-5d"/>
     </g>
    </g>
   </g>
   <g id="PolyCollection_1">
    <defs>
     <path d="M 596.610426 -365.413427 
L 596.610426 -335.840638 
L 342.974063 -235.862637 
L 89.337699 -81.095925 
L 89.337699 -193.493748 
L 89.337699 -193.493748 
L 342.974063 -320.235732 
L 596.610426 -365.413427 
z
" id="mc13f9645d7" style="stroke:#b84878;stroke-opacity:0.4;stroke-width:0.5;"/>
    </defs>
    <g clip-path="url(#pe12ce0b67b)">
     <use style="fill:#b84878;fill-opacity:0.4;stroke:#b84878;stroke-opacity:0.4;stroke-width:0.5;" x="0" xlink:href="#mc13f9645d7" y="458.487422"/>
    </g>
   </g>
   <g id="PolyCollection_2">
    <defs>
     <path d="M 596.610426 -351.81116 
L 596.610426 -336.226177 
L 342.974063 -314.84486 
L 89.337699 -139.72714 
L 89.337699 -356.984741 
L 89.337699 -356.984741 
L 342.974063 -350.107597 
L 596.610426 -351.81116 
z
" id="m48fd9c9530" style="stroke:#4c72b0;stroke-opacity:0.4;stroke-width:0.5;"/>
    </defs>
    <g clip-path="url(#pe12ce0b67b)">
     <use style="fill:#4c72b0;fill-opacity:0.4;stroke:#4c72b0;stroke-opacity:0.4;stroke-width:0.5;" x="0" xlink:href="#m48fd9c9530" y="458.487422"/>
    </g>
   </g>
   <g id="PolyCollection_3">
    <defs>
     <path d="M 596.610426 -351.81116 
L 596.610426 -336.226177 
L 342.974063 -322.6257 
L 89.337699 -295.173605 
L 89.337699 -358.794508 
L 89.337699 -358.794508 
L 342.974063 -373.123509 
L 596.610426 -351.81116 
z
" id="mdf42bf0c65" style="stroke:#2f847c;stroke-opacity:0.4;stroke-width:0.5;"/>
    </defs>
    <g clip-path="url(#pe12ce0b67b)">
     <use style="fill:#2f847c;fill-opacity:0.4;stroke:#2f847c;stroke-opacity:0.4;stroke-width:0.5;" x="0" xlink:href="#mdf42bf0c65" y="458.487422"/>
    </g>
   </g>
   <g id="line2d_39">
    <path clip-path="url(#pe12ce0b67b)" d="M 596.610426 107.860389 
L 342.974063 180.438237 
L 89.337699 321.192585 
" style="fill:none;stroke:#b84878;stroke-linecap:square;stroke-opacity:0.8;stroke-width:5;"/>
    <defs>
     <path d="M -5 10 
L 0 5 
L 5 10 
L 10 5 
L 5 0 
L 10 -5 
L 5 -10 
L 0 -5 
L -5 -10 
L -10 -5 
L -5 0 
L -10 5 
z
" id="mf93e82b878" style="stroke:#b84878;stroke-linejoin:miter;stroke-opacity:0.8;"/>
    </defs>
    <g clip-path="url(#pe12ce0b67b)">
     <use style="fill:#b84878;fill-opacity:0.8;stroke:#b84878;stroke-linejoin:miter;stroke-opacity:0.8;" x="596.610426" xlink:href="#mf93e82b878" y="107.860389"/>
     <use style="fill:#b84878;fill-opacity:0.8;stroke:#b84878;stroke-linejoin:miter;stroke-opacity:0.8;" x="342.974063" xlink:href="#mf93e82b878" y="180.438237"/>
     <use style="fill:#b84878;fill-opacity:0.8;stroke:#b84878;stroke-linejoin:miter;stroke-opacity:0.8;" x="89.337699" xlink:href="#mf93e82b878" y="321.192585"/>
    </g>
   </g>
   <g id="line2d_40">
    <path clip-path="url(#pe12ce0b67b)" d="M 596.610426 114.468753 
L 342.974063 126.011193 
L 89.337699 210.131481 
" style="fill:none;stroke:#4c72b0;stroke-linecap:square;stroke-opacity:0.8;stroke-width:5;"/>
    <defs>
     <path d="M 0 10 
C 2.652031 10 5.195799 8.946337 7.071068 7.071068 
C 8.946337 5.195799 10 2.652031 10 0 
C 10 -2.652031 8.946337 -5.195799 7.071068 -7.071068 
C 5.195799 -8.946337 2.652031 -10 0 -10 
C -2.652031 -10 -5.195799 -8.946337 -7.071068 -7.071068 
C -8.946337 -5.195799 -10 -2.652031 -10 0 
C -10 2.652031 -8.946337 5.195799 -7.071068 7.071068 
C -5.195799 8.946337 -2.652031 10 0 10 
z
" id="ma38408eba7" style="stroke:#4c72b0;stroke-opacity:0.8;"/>
    </defs>
    <g clip-path="url(#pe12ce0b67b)">
     <use style="fill:#4c72b0;fill-opacity:0.8;stroke:#4c72b0;stroke-opacity:0.8;" x="596.610426" xlink:href="#ma38408eba7" y="114.468753"/>
     <use style="fill:#4c72b0;fill-opacity:0.8;stroke:#4c72b0;stroke-opacity:0.8;" x="342.974063" xlink:href="#ma38408eba7" y="126.011193"/>
     <use style="fill:#4c72b0;fill-opacity:0.8;stroke:#4c72b0;stroke-opacity:0.8;" x="89.337699" xlink:href="#ma38408eba7" y="210.131481"/>
    </g>
   </g>
   <g id="line2d_41">
    <path clip-path="url(#pe12ce0b67b)" d="M 596.610426 114.468753 
L 342.974063 110.612817 
L 89.337699 131.503365 
" style="fill:none;stroke:#2f847c;stroke-linecap:square;stroke-opacity:0.8;stroke-width:5;"/>
    <defs>
     <path d="M -0 14.142136 
L 14.142136 0 
L 0 -14.142136 
L -14.142136 -0 
z
" id="me6c091a451" style="stroke:#2f847c;stroke-linejoin:miter;stroke-opacity:0.8;"/>
    </defs>
    <g clip-path="url(#pe12ce0b67b)">
     <use style="fill:#2f847c;fill-opacity:0.8;stroke:#2f847c;stroke-linejoin:miter;stroke-opacity:0.8;" x="596.610426" xlink:href="#me6c091a451" y="114.468753"/>
     <use style="fill:#2f847c;fill-opacity:0.8;stroke:#2f847c;stroke-linejoin:miter;stroke-opacity:0.8;" x="342.974063" xlink:href="#me6c091a451" y="110.612817"/>
     <use style="fill:#2f847c;fill-opacity:0.8;stroke:#2f847c;stroke-linejoin:miter;stroke-opacity:0.8;" x="89.337699" xlink:href="#me6c091a451" y="131.503365"/>
    </g>
   </g>
   <g id="patch_3">
    <path d="M 63.974063 400.607109 
L 63.974063 20.087109 
" style="fill:none;stroke:#181717;stroke-linecap:square;stroke-linejoin:miter;"/>
   </g>
   <g id="patch_4">
    <path d="M 621.974063 400.607109 
L 621.974063 20.087109 
" style="fill:none;stroke:#181717;stroke-linecap:square;stroke-linejoin:miter;"/>
   </g>
   <g id="patch_5">
    <path d="M 63.974063 400.607109 
L 621.974063 400.607109 
" style="fill:none;stroke:#181717;stroke-linecap:square;stroke-linejoin:miter;"/>
   </g>
   <g id="patch_6">
    <path d="M 63.974063 20.087109 
L 621.974063 20.087109 
" style="fill:none;stroke:#181717;stroke-linecap:square;stroke-linejoin:miter;"/>
   </g>
   <g id="patch_7">
    <path d="M 338.788539 123.260612 
L 338.551992 129.077091 
Q 225.318538 51.17502 111.71355 118.304576 
L 123.61018 126.941021 
Q 109.569214 129.840309 90.954825 130.325957 
Q 97.442609 112.65233 108.581434 100.976877 
L 110.154254 115.741648 
Q 223.755932 44.637691 344.056936 120.728703 
L 338.788539 123.260612 
z
" style="fill:#f2b134;opacity:0.8;"/>
   </g>
   <g id="text_13">
    <!-- Annotaion$\searrow$ 10x -->
    <g style="fill:#ffffff;opacity:0.8;" transform="translate(131.055881 55.625654)scale(0.2 -0.2)">
     <defs>
      <path d="M 4497 359 
L 4300 163 
L 2563 163 
L 2563 691 
L 3594 691 
L 900 3384 
L 1275 3759 
L 3969 1066 
L 3969 2097 
L 4497 2097 
L 4497 359 
z
" id="DejaVuSans-2198" transform="scale(0.015625)"/>
      <path d="M 3513 3500 
L 2247 1797 
L 3578 0 
L 2900 0 
L 1881 1375 
L 863 0 
L 184 0 
L 1544 1831 
L 300 3500 
L 978 3500 
L 1906 2253 
L 2834 3500 
L 3513 3500 
z
" id="DejaVuSans-78" transform="scale(0.015625)"/>
     </defs>
     <use transform="translate(0 0.015625)" xlink:href="#DejaVuSans-41"/>
     <use transform="translate(68.408203 0.015625)" xlink:href="#DejaVuSans-6e"/>
     <use transform="translate(131.787109 0.015625)" xlink:href="#DejaVuSans-6e"/>
     <use transform="translate(195.166016 0.015625)" xlink:href="#DejaVuSans-6f"/>
     <use transform="translate(256.347656 0.015625)" xlink:href="#DejaVuSans-74"/>
     <use transform="translate(295.556641 0.015625)" xlink:href="#DejaVuSans-61"/>
     <use transform="translate(356.835938 0.015625)" xlink:href="#DejaVuSans-69"/>
     <use transform="translate(384.619141 0.015625)" xlink:href="#DejaVuSans-6f"/>
     <use transform="translate(445.800781 0.015625)" xlink:href="#DejaVuSans-6e"/>
     <use transform="translate(528.662109 0.015625)" xlink:href="#DejaVuSans-2198"/>
     <use transform="translate(631.933594 0.015625)" xlink:href="#DejaVuSans-20"/>
     <use transform="translate(663.720703 0.015625)" xlink:href="#DejaVuSans-31"/>
     <use transform="translate(727.34375 0.015625)" xlink:href="#DejaVuSans-30"/>
     <use transform="translate(790.966797 0.015625)" xlink:href="#DejaVuSans-78"/>
    </g>
    <!-- Accuracy$\searrow$ 0.43% -->
    <g style="fill:#ffffff;opacity:0.8;" transform="translate(123.055881 78.021279)scale(0.2 -0.2)">
     <defs>
      <path d="M 684 794 
L 1344 794 
L 1344 0 
L 684 0 
L 684 794 
z
" id="DejaVuSans-2e" transform="scale(0.015625)"/>
      <path d="M 2419 4116 
L 825 1625 
L 2419 1625 
L 2419 4116 
z
M 2253 4666 
L 3047 4666 
L 3047 1625 
L 3713 1625 
L 3713 1100 
L 3047 1100 
L 3047 0 
L 2419 0 
L 2419 1100 
L 313 1100 
L 313 1709 
L 2253 4666 
z
" id="DejaVuSans-34" transform="scale(0.015625)"/>
      <path d="M 2597 2516 
Q 3050 2419 3304 2112 
Q 3559 1806 3559 1356 
Q 3559 666 3084 287 
Q 2609 -91 1734 -91 
Q 1441 -91 1130 -33 
Q 819 25 488 141 
L 488 750 
Q 750 597 1062 519 
Q 1375 441 1716 441 
Q 2309 441 2620 675 
Q 2931 909 2931 1356 
Q 2931 1769 2642 2001 
Q 2353 2234 1838 2234 
L 1294 2234 
L 1294 2753 
L 1863 2753 
Q 2328 2753 2575 2939 
Q 2822 3125 2822 3475 
Q 2822 3834 2567 4026 
Q 2313 4219 1838 4219 
Q 1578 4219 1281 4162 
Q 984 4106 628 3988 
L 628 4550 
Q 988 4650 1302 4700 
Q 1616 4750 1894 4750 
Q 2613 4750 3031 4423 
Q 3450 4097 3450 3541 
Q 3450 3153 3228 2886 
Q 3006 2619 2597 2516 
z
" id="DejaVuSans-33" transform="scale(0.015625)"/>
     </defs>
     <use transform="translate(0 0.78125)" xlink:href="#DejaVuSans-41"/>
     <use transform="translate(68.408203 0.78125)" xlink:href="#DejaVuSans-63"/>
     <use transform="translate(123.388672 0.78125)" xlink:href="#DejaVuSans-63"/>
     <use transform="translate(178.369141 0.78125)" xlink:href="#DejaVuSans-75"/>
     <use transform="translate(241.748047 0.78125)" xlink:href="#DejaVuSans-72"/>
     <use transform="translate(282.861328 0.78125)" xlink:href="#DejaVuSans-61"/>
     <use transform="translate(344.140625 0.78125)" xlink:href="#DejaVuSans-63"/>
     <use transform="translate(399.121094 0.78125)" xlink:href="#DejaVuSans-79"/>
     <use transform="translate(477.783203 0.78125)" xlink:href="#DejaVuSans-2198"/>
     <use transform="translate(581.054688 0.78125)" xlink:href="#DejaVuSans-20"/>
     <use transform="translate(612.841797 0.78125)" xlink:href="#DejaVuSans-30"/>
     <use transform="translate(676.464844 0.78125)" xlink:href="#DejaVuSans-2e"/>
     <use transform="translate(708.251953 0.78125)" xlink:href="#DejaVuSans-34"/>
     <use transform="translate(771.875 0.78125)" xlink:href="#DejaVuSans-33"/>
     <use transform="translate(835.498047 0.78125)" xlink:href="#DejaVuSans-25"/>
    </g>
   </g>
   <g id="patch_8">
    <path d="M 592.52957 111.566175 
L 592.078594 117.369784 
Q 481.805729 35.358349 365.818383 98.249017 
L 377.395388 107.314393 
Q 363.255226 109.694891 344.633273 109.495921 
Q 351.77016 92.071741 363.334312 80.813711 
L 364.354573 95.63038 
Q 480.485042 28.767887 597.887383 109.229885 
L 592.52957 111.566175 
z
" style="fill:#f2b134;opacity:0.8;"/>
   </g>
   <g id="text_14">
    <!-- Annotaion$\searrow$ 10x -->
    <g style="fill:#ffffff;opacity:0.8;" transform="translate(384.692244 39.40916)scale(0.2 -0.2)">
     <use transform="translate(0 0.015625)" xlink:href="#DejaVuSans-41"/>
     <use transform="translate(68.408203 0.015625)" xlink:href="#DejaVuSans-6e"/>
     <use transform="translate(131.787109 0.015625)" xlink:href="#DejaVuSans-6e"/>
     <use transform="translate(195.166016 0.015625)" xlink:href="#DejaVuSans-6f"/>
     <use transform="translate(256.347656 0.015625)" xlink:href="#DejaVuSans-74"/>
     <use transform="translate(295.556641 0.015625)" xlink:href="#DejaVuSans-61"/>
     <use transform="translate(356.835938 0.015625)" xlink:href="#DejaVuSans-69"/>
     <use transform="translate(384.619141 0.015625)" xlink:href="#DejaVuSans-6f"/>
     <use transform="translate(445.800781 0.015625)" xlink:href="#DejaVuSans-6e"/>
     <use transform="translate(528.662109 0.015625)" xlink:href="#DejaVuSans-2198"/>
     <use transform="translate(631.933594 0.015625)" xlink:href="#DejaVuSans-20"/>
     <use transform="translate(663.720703 0.015625)" xlink:href="#DejaVuSans-31"/>
     <use transform="translate(727.34375 0.015625)" xlink:href="#DejaVuSans-30"/>
     <use transform="translate(790.966797 0.015625)" xlink:href="#DejaVuSans-78"/>
    </g>
    <!-- Accuracy$\nearrow$ 0.30% -->
    <g style="fill:#ffffff;opacity:0.8;" transform="translate(376.692244 61.804785)scale(0.2 -0.2)">
     <defs>
      <path d="M 4300 3759 
L 4497 3563 
L 4497 1825 
L 3969 1825 
L 3969 2856 
L 1275 163 
L 900 538 
L 3594 3231 
L 2563 3231 
L 2563 3759 
L 4300 3759 
z
" id="DejaVuSans-2197" transform="scale(0.015625)"/>
     </defs>
     <use transform="translate(0 0.78125)" xlink:href="#DejaVuSans-41"/>
     <use transform="translate(68.408203 0.78125)" xlink:href="#DejaVuSans-63"/>
     <use transform="translate(123.388672 0.78125)" xlink:href="#DejaVuSans-63"/>
     <use transform="translate(178.369141 0.78125)" xlink:href="#DejaVuSans-75"/>
     <use transform="translate(241.748047 0.78125)" xlink:href="#DejaVuSans-72"/>
     <use transform="translate(282.861328 0.78125)" xlink:href="#DejaVuSans-61"/>
     <use transform="translate(344.140625 0.78125)" xlink:href="#DejaVuSans-63"/>
     <use transform="translate(399.121094 0.78125)" xlink:href="#DejaVuSans-79"/>
     <use transform="translate(477.783203 0.78125)" xlink:href="#DejaVuSans-2197"/>
     <use transform="translate(581.054688 0.78125)" xlink:href="#DejaVuSans-20"/>
     <use transform="translate(612.841797 0.78125)" xlink:href="#DejaVuSans-30"/>
     <use transform="translate(676.464844 0.78125)" xlink:href="#DejaVuSans-2e"/>
     <use transform="translate(708.251953 0.78125)" xlink:href="#DejaVuSans-33"/>
     <use transform="translate(771.875 0.78125)" xlink:href="#DejaVuSans-30"/>
     <use transform="translate(835.498047 0.78125)" xlink:href="#DejaVuSans-25"/>
    </g>
   </g>
   <g id="legend_1">
    <g id="patch_9">
     <path d="M 417.197812 390.107109 
L 607.274062 390.107109 
Q 611.474062 390.107109 611.474062 385.907109 
L 611.474062 295.534922 
Q 611.474062 291.334922 607.274062 291.334922 
L 417.197812 291.334922 
Q 412.997813 291.334922 412.997813 295.534922 
L 412.997813 385.907109 
Q 412.997813 390.107109 417.197812 390.107109 
z
" style="fill:#212020;opacity:0.4;stroke:#cccccc;stroke-linejoin:miter;stroke-width:0.5;"/>
    </g>
    <g id="line2d_42">
     <path d="M 421.397812 308.341641 
L 463.397812 308.341641 
" style="fill:none;stroke:#2f847c;stroke-linecap:square;stroke-opacity:0.8;stroke-width:5;"/>
    </g>
    <g id="line2d_43">
     <g>
      <use style="fill:#2f847c;fill-opacity:0.8;stroke:#2f847c;stroke-linejoin:miter;stroke-opacity:0.8;" x="442.397812" xlink:href="#me6c091a451" y="308.341641"/>
     </g>
    </g>
    <g id="text_15">
     <!-- cRedAnno+ -->
     <g style="fill:#ffffff;" transform="translate(480.197812 315.691641)scale(0.21 -0.21)">
      <defs>
       <path d="M 2841 2188 
Q 3044 2119 3236 1894 
Q 3428 1669 3622 1275 
L 4263 0 
L 3584 0 
L 2988 1197 
Q 2756 1666 2539 1819 
Q 2322 1972 1947 1972 
L 1259 1972 
L 1259 0 
L 628 0 
L 628 4666 
L 2053 4666 
Q 2853 4666 3247 4331 
Q 3641 3997 3641 3322 
Q 3641 2881 3436 2590 
Q 3231 2300 2841 2188 
z
M 1259 4147 
L 1259 2491 
L 2053 2491 
Q 2509 2491 2742 2702 
Q 2975 2913 2975 3322 
Q 2975 3731 2742 3939 
Q 2509 4147 2053 4147 
L 1259 4147 
z
" id="DejaVuSans-52" transform="scale(0.015625)"/>
       <path d="M 2944 4013 
L 2944 2272 
L 4684 2272 
L 4684 1741 
L 2944 1741 
L 2944 0 
L 2419 0 
L 2419 1741 
L 678 1741 
L 678 2272 
L 2419 2272 
L 2419 4013 
L 2944 4013 
z
" id="DejaVuSans-2b" transform="scale(0.015625)"/>
      </defs>
      <use xlink:href="#DejaVuSans-63"/>
      <use x="54.980469" xlink:href="#DejaVuSans-52"/>
      <use x="119.962891" xlink:href="#DejaVuSans-65"/>
      <use x="181.486328" xlink:href="#DejaVuSans-64"/>
      <use x="244.962891" xlink:href="#DejaVuSans-41"/>
      <use x="313.371094" xlink:href="#DejaVuSans-6e"/>
      <use x="376.75" xlink:href="#DejaVuSans-6e"/>
      <use x="440.128906" xlink:href="#DejaVuSans-6f"/>
      <use x="501.310547" xlink:href="#DejaVuSans-2b"/>
     </g>
    </g>
    <g id="line2d_44">
     <path d="M 421.397812 339.165703 
L 463.397812 339.165703 
" style="fill:none;stroke:#4c72b0;stroke-linecap:square;stroke-opacity:0.8;stroke-width:5;"/>
    </g>
    <g id="line2d_45">
     <g>
      <use style="fill:#4c72b0;fill-opacity:0.8;stroke:#4c72b0;stroke-opacity:0.8;" x="442.397812" xlink:href="#ma38408eba7" y="339.165703"/>
     </g>
    </g>
    <g id="text_16">
     <!-- cRedAnno -->
     <g style="fill:#ffffff;" transform="translate(480.197812 346.515703)scale(0.21 -0.21)">
      <use xlink:href="#DejaVuSans-63"/>
      <use x="54.980469" xlink:href="#DejaVuSans-52"/>
      <use x="119.962891" xlink:href="#DejaVuSans-65"/>
      <use x="181.486328" xlink:href="#DejaVuSans-64"/>
      <use x="244.962891" xlink:href="#DejaVuSans-41"/>
      <use x="313.371094" xlink:href="#DejaVuSans-6e"/>
      <use x="376.75" xlink:href="#DejaVuSans-6e"/>
      <use x="440.128906" xlink:href="#DejaVuSans-6f"/>
     </g>
    </g>
    <g id="line2d_46">
     <path d="M 421.397812 369.989766 
L 463.397812 369.989766 
" style="fill:none;stroke:#b84878;stroke-linecap:square;stroke-opacity:0.8;stroke-width:5;"/>
    </g>
    <g id="line2d_47">
     <g>
      <use style="fill:#b84878;fill-opacity:0.8;stroke:#b84878;stroke-linejoin:miter;stroke-opacity:0.8;" x="442.397812" xlink:href="#mf93e82b878" y="369.989766"/>
     </g>
    </g>
    <g id="text_17">
     <!-- Baseline -->
     <g style="fill:#ffffff;" transform="translate(480.197812 377.339766)scale(0.21 -0.21)">
      <defs>
       <path d="M 1259 2228 
L 1259 519 
L 2272 519 
Q 2781 519 3026 730 
Q 3272 941 3272 1375 
Q 3272 1813 3026 2020 
Q 2781 2228 2272 2228 
L 1259 2228 
z
M 1259 4147 
L 1259 2741 
L 2194 2741 
Q 2656 2741 2882 2914 
Q 3109 3088 3109 3444 
Q 3109 3797 2882 3972 
Q 2656 4147 2194 4147 
L 1259 4147 
z
M 628 4666 
L 2241 4666 
Q 2963 4666 3353 4366 
Q 3744 4066 3744 3513 
Q 3744 3084 3544 2831 
Q 3344 2578 2956 2516 
Q 3422 2416 3680 2098 
Q 3938 1781 3938 1306 
Q 3938 681 3513 340 
Q 3088 0 2303 0 
L 628 0 
L 628 4666 
z
" id="DejaVuSans-42" transform="scale(0.015625)"/>
      </defs>
      <use xlink:href="#DejaVuSans-42"/>
      <use x="68.603516" xlink:href="#DejaVuSans-61"/>
      <use x="129.882812" xlink:href="#DejaVuSans-73"/>
      <use x="181.982422" xlink:href="#DejaVuSans-65"/>
      <use x="243.505859" xlink:href="#DejaVuSans-6c"/>
      <use x="271.289062" xlink:href="#DejaVuSans-69"/>
      <use x="299.072266" xlink:href="#DejaVuSans-6e"/>
      <use x="362.451172" xlink:href="#DejaVuSans-65"/>
     </g>
    </g>
   </g>
  </g>
 </g>
 <defs>
  <clipPath id="pe12ce0b67b">
   <rect height="380.52" width="558" x="63.974063" y="20.087109"/>
  </clipPath>
 </defs>
</svg>
